<svg width="65" height="65" viewBox="0 0 65 65" fill="none" xmlns="http://www.w3.org/2000/svg">
<g clip-path="url(#clip0)">
<path d="M19.8046 46.9729C19.1038 46.9729 18.535 47.5417 18.535 48.2424C18.535 48.9432 19.1038 49.512 19.8046 49.512C20.5053 49.512 21.0741 48.9432 21.0741 48.2424C21.0741 47.5417 20.5053 46.9729 19.8046 46.9729Z" fill="#9D9D9D"/>
<path d="M57.1466 24.1212L64.6279 16.64C64.9426 16.3253 65.0694 15.8687 64.9624 15.4369C64.8554 15.0048 64.5298 14.6605 64.1046 14.5293L45.8868 8.90651C44.2445 3.62768 39.3634 0.000244141 33.769 0.000244141C28.5685 0.000244141 23.9174 3.16963 21.9924 7.95068L0.891034 14.5304C0.466884 14.6627 0.142646 15.0072 0.036386 15.4388C-0.0698738 15.8701 0.0570793 16.3259 0.371288 16.6401L8.04929 24.3181L3.20679 32.3892C3.00861 32.7194 2.97116 33.1217 3.10472 33.4829C3.23827 33.844 3.52861 34.125 3.89398 34.2467L10.9174 36.5877V56.1134C10.9174 56.6425 11.2457 57.1162 11.7412 57.3021C16.0357 58.9123 31.9918 64.8966 32.0774 64.927C32.3293 65.0157 32.6131 65.0278 32.8897 64.9383C32.8934 64.937 32.8972 64.9362 32.9009 64.935L55.7524 57.3178C56.2708 57.145 56.6205 56.6598 56.6205 56.1134V36.065L64.1105 33.7112C64.534 33.5782 64.8573 33.2336 64.963 32.8025C65.0686 32.3714 64.9416 31.9164 64.6277 31.6024L57.1466 24.1212ZM46.4643 12.6956C46.4643 12.373 46.4507 12.0511 46.4265 11.7303L61.3427 16.3343L55.0081 22.6687L44.6579 19.219C45.8299 17.26 46.4643 14.9995 46.4643 12.6956ZM24.1621 9.39122C25.5714 5.29292 29.4321 2.53931 33.769 2.53931C38.441 2.53931 42.4931 5.69942 43.6228 10.224C43.8235 11.028 43.9252 11.8596 43.9252 12.6956C43.9252 15.0536 43.1427 17.2637 41.6619 19.0879C39.7224 21.4799 36.8456 22.8518 33.769 22.8518C30.4433 22.8518 27.3239 21.2194 25.424 18.4841C24.2391 16.7822 23.6127 14.7804 23.6127 12.6956C23.6127 11.5617 23.7974 10.45 24.1621 9.39122ZM3.65125 16.3293L21.2089 10.8546C21.1208 11.4612 21.0737 12.0756 21.0737 12.6954C21.0737 14.7395 21.5579 16.7193 22.4808 18.5057L9.99078 22.6687L3.65125 16.3293ZM6.19831 32.3384L10.2126 25.6477L30.5965 32.4424L26.5824 39.133C24.4058 38.4075 8.52231 33.1129 6.19831 32.3384ZM31.2299 61.8988L13.4565 55.2337V37.4341C27.4404 42.0707 26.7575 41.9292 27.1468 41.9292C27.5833 41.9292 28.0012 41.7033 28.2357 41.3127L31.2299 36.322V61.8988ZM32.4994 30.4003L13.6626 24.1215L23.9197 20.7026C26.3204 23.6539 29.9344 25.3909 33.769 25.3909C37.3163 25.3909 40.6502 23.931 43.0482 21.359L51.3362 24.1213L32.4994 30.4003ZM54.0815 55.1984L33.769 61.9692V35.3573L38.2696 40.9826C38.597 41.3918 39.142 41.5576 39.6416 41.4007L54.0815 36.863V55.1984ZM39.7094 38.718L34.6282 32.3671L55.0081 25.5738L61.3512 31.9169L39.7094 38.718Z" fill="#9D9D9D"/>
<path d="M27.8676 49.7907L25.0442 48.7319C24.3877 48.4859 23.6559 48.8184 23.4097 49.4749C23.1635 50.1315 23.4961 50.8632 24.1526 51.1094L26.976 52.1682C27.6339 52.4147 28.3648 52.0806 28.6105 51.4252C28.8567 50.7688 28.5241 50.0369 27.8676 49.7907Z" fill="#9D9D9D"/>
<path d="M27.8675 55.2142L20.2503 52.3578C19.5938 52.1116 18.8621 52.4442 18.6158 53.1007C18.3695 53.7572 18.7022 54.4891 19.3587 54.7352L26.9759 57.5917C27.1228 57.6468 27.2733 57.6729 27.4215 57.6729C27.9355 57.6729 28.4192 57.3585 28.6104 56.8487C28.8567 56.1921 28.5241 55.4604 27.8675 55.2142Z" fill="#9D9D9D"/>
<path d="M41.0148 7.98917C40.519 7.49329 39.7152 7.49342 39.2193 7.98917L32.4998 14.7088L30.8584 13.0674C30.3626 12.5717 29.5588 12.5717 29.0629 13.0674C28.567 13.5632 28.5671 14.367 29.0629 14.8629L31.6021 17.4019C32.0978 17.8976 32.9017 17.8976 33.3976 17.4019L41.0148 9.78467C41.5105 9.28892 41.5105 8.48505 41.0148 7.98917Z" fill="#9D9D9D"/>
</g>
<defs>
<clipPath id="clip0">
<rect width="65" height="65" fill="white"/>
</clipPath>
</defs>
</svg>
