<svg width="65" height="65" viewBox="0 0 65 65" fill="none" xmlns="http://www.w3.org/2000/svg">
<path d="M61.2836 61.6717L58.4081 44.8373C58.0982 43.0235 56.8115 41.5665 55.0498 41.0351L47.294 38.6949C47.1334 36.799 46.356 35.0104 45.0624 33.5946C44.0276 32.4622 42.7261 31.6376 41.2914 31.1826C41.5369 30.9102 41.7645 30.6386 41.9734 30.373C43.8177 28.0273 44.8052 25.4431 45.0565 23.6796H45.6549C47.2111 23.6796 48.4772 22.4136 48.4772 20.8573V19.4105C48.4772 18.3719 47.8929 17.4308 47.0143 16.9424V13.4634C47.0143 12.9377 46.5881 12.5115 46.0624 12.5115C45.5367 12.5115 45.1106 12.9375 45.1106 13.4634V17.369C44.7399 17.4333 44.2976 17.5445 43.8451 17.7351C43.7988 17.752 43.7537 17.7715 43.7111 17.795C43.6089 17.8416 43.5066 17.8907 43.4046 17.9461V10.2753C43.4046 8.1561 41.6806 6.43208 39.5614 6.43208H36.9341C36.0279 6.43208 35.1426 6.74781 34.4411 7.32139L34.1833 7.53213C33.7097 7.91934 33.112 8.13262 32.5002 8.13262C31.8885 8.13262 31.2906 7.91934 30.8171 7.53213L30.5594 7.32139C29.8578 6.74794 28.9726 6.43208 28.0664 6.43208H25.4389C23.3196 6.43208 21.5956 8.1561 21.5956 10.2753V17.9461C21.4937 17.8907 21.3913 17.8416 21.2891 17.795C21.2465 17.7715 21.2015 17.752 21.1552 17.7351C20.7027 17.5445 20.2603 17.4333 19.8897 17.369V7.49341C19.8897 4.41124 22.3973 1.90366 25.4795 1.90366H39.5206C42.6029 1.90366 45.1104 4.41124 45.1104 7.49341V8.98968C45.1104 9.51539 45.5365 9.94157 46.0621 9.94157C46.5877 9.94157 47.014 9.51552 47.014 8.98968V7.49341C47.014 3.36159 43.6524 0 39.5206 0H25.4795C21.3475 0 17.9861 3.36159 17.9861 7.49341V16.9425C17.1074 17.4309 16.5232 18.3719 16.5232 19.4106V20.8574C16.5232 22.4137 17.7893 23.6797 19.3455 23.6797H19.9438C20.1951 25.4432 21.1826 28.0274 23.027 30.3732C23.2356 30.6385 23.4631 30.9098 23.7084 31.182C20.4101 32.2296 18.0049 35.195 17.7064 38.6949L9.95032 41.0351C8.18859 41.5665 6.90179 43.0235 6.59203 44.8373L5.42431 51.6736C5.33582 52.1918 5.68418 52.6835 6.20228 52.772C6.72025 52.8607 7.21219 52.5123 7.30081 51.994L8.46852 45.1577C8.6559 44.0604 9.43438 43.179 10.5002 42.8576L17.6736 40.6932V42.576C16.0293 42.8787 14.6302 44.0082 14.054 45.5731C13.901 45.9885 13.8059 46.4235 13.7714 46.8658L13.0781 55.7645C13.0258 56.4349 13.2577 57.1024 13.7141 57.5956C14.1705 58.0889 14.8178 58.372 15.49 58.372H16.6768C17.2025 58.372 17.6287 57.946 17.6287 57.4201C17.6287 56.8943 17.2025 56.4684 16.6768 56.4684H15.49C15.3467 56.4684 15.2088 56.4082 15.1115 56.3028C15.0142 56.1977 14.9648 56.0555 14.976 55.9127L15.6693 47.0138C15.6902 46.7458 15.7478 46.4824 15.8404 46.2309C16.2414 45.1422 17.324 44.405 18.5348 44.3965L18.6915 44.3954C18.6989 44.3953 18.7061 44.3953 18.7134 44.3953C19.8901 44.3953 20.9318 45.0625 21.3711 46.0999C21.4944 46.3907 21.5693 46.6982 21.5939 47.0138L22.2875 55.9128C22.2985 56.0555 22.2492 56.1977 22.1519 56.3029C22.0547 56.4081 21.9167 56.4684 21.7733 56.4684H20.5866C20.0609 56.4684 19.6347 56.8944 19.6347 57.4201C19.6347 57.9459 20.0609 58.372 20.5866 58.372H21.7733C22.4456 58.372 23.093 58.0891 23.5493 57.5956C24.0058 57.1021 24.2377 56.4347 24.1854 55.7647L23.4919 46.8658C23.4513 46.345 23.3275 45.8373 23.124 45.357C22.497 43.8772 21.1562 42.8482 19.5772 42.5698V40.1188L22.8493 39.1315C23.147 39.7585 23.7369 41.1135 24.9055 44.0343C26.0833 46.9814 27.5472 50.7589 28.9511 54.4312C28.9612 54.462 28.9727 54.4921 28.9857 54.5215C29.9226 56.9731 30.8314 59.3743 31.6088 61.4457C31.7482 61.8172 32.1033 62.0632 32.5 62.0632C32.8967 62.0632 33.2518 61.8172 33.3912 61.4457C34.1684 59.3743 35.0773 56.9731 36.0143 54.5215C36.0274 54.4921 36.0388 54.4619 36.0488 54.4312C37.4518 50.7611 38.9149 46.986 40.0922 44.0398C41.2623 41.1152 41.8527 39.7591 42.1506 39.1315L45.4227 40.1188V45.741C43.1555 46.1814 41.4382 48.1809 41.4382 50.575C41.4382 53.2906 43.6476 55.5001 46.3634 55.5001C49.0792 55.5001 51.2885 53.2907 51.2885 50.575C51.2885 48.1887 49.5825 46.194 47.3263 45.745V40.6933L54.4999 42.8577C55.5657 43.1792 56.3441 44.0605 56.5316 45.1579L59.4071 61.9922C59.4548 62.2714 59.3805 62.5443 59.1978 62.7608C59.0153 62.9771 58.7587 63.0965 58.4755 63.0965H6.52449C6.24125 63.0965 5.98481 62.9773 5.80212 62.7608C5.61956 62.5443 5.54517 62.2715 5.5929 61.9922L6.54188 56.4365C6.63037 55.9183 6.28201 55.4266 5.76391 55.3381C5.24594 55.2492 4.754 55.598 4.66539 56.1161L3.71641 61.6718C3.57486 62.5011 3.80477 63.3454 4.34711 63.9884C4.88971 64.6313 5.6833 65 6.52449 65H58.4755C59.3167 65 60.1104 64.6313 60.6529 63.9883C61.1952 63.3453 61.4251 62.5009 61.2836 61.6717ZM45.1218 19.3082C45.629 19.1817 46.0361 19.184 46.0407 19.1841C46.2047 19.1863 46.3642 19.148 46.5058 19.0737C46.5482 19.1792 46.5732 19.2926 46.5732 19.4106V20.8574C46.5732 21.3639 46.1612 21.776 45.6546 21.776H45.1218V19.3082ZM19.8782 21.776H19.3454C18.8388 21.776 18.4267 21.3639 18.4267 20.8574V19.4106C18.4267 19.2926 18.4519 19.1792 18.4941 19.0738C18.6357 19.1481 18.7951 19.1864 18.9593 19.1841C18.9665 19.1854 19.3725 19.1831 19.8782 19.3087V21.776ZM21.7818 22.8433V20.3426C22.0703 20.429 22.3858 20.4172 22.677 20.2957C23.1765 20.0873 23.4993 19.6032 23.4993 19.0623V10.2753C23.4993 9.20588 24.3694 8.33574 25.4389 8.33574H28.0661C28.5343 8.33574 28.9918 8.49888 29.3542 8.79519L29.6119 9.00593C30.4246 9.6704 31.4502 10.0362 32.5 10.0362C33.5498 10.0362 34.5754 9.67027 35.388 9.00593L35.6458 8.79519C36.0081 8.49888 36.4656 8.33574 36.9338 8.33574H39.5611C40.6306 8.33574 41.5007 9.20588 41.5007 10.2753V19.0624C41.5007 19.6032 41.8234 20.0874 42.323 20.2959C42.4898 20.3654 42.6645 20.3992 42.8376 20.3992C42.9668 20.3992 43.0949 20.3803 43.2181 20.3435V22.8433C43.2181 24.2331 42.2573 26.9318 40.4767 29.1964C39.8869 29.9466 39.1287 30.7525 38.1952 31.4568C38.1656 31.4766 38.1373 31.4981 38.1103 31.5209C36.6642 32.5901 34.8047 33.4092 32.5 33.4092C30.1953 33.4092 28.3358 32.5901 26.8895 31.5208C26.8625 31.4981 26.8343 31.4766 26.8049 31.457C25.8714 30.7525 25.1132 29.9466 24.5233 29.1964C22.7427 26.932 21.7818 24.2331 21.7818 22.8433ZM38.7359 38.2218L32.5 42.8827L26.264 38.2218C26.8824 37.4358 27.2289 36.4269 27.2289 35.5266V33.9922C28.6953 34.7808 30.4451 35.313 32.5 35.313C34.5548 35.313 36.3048 34.7808 37.7711 33.9922V35.5266C37.7711 36.4269 38.1175 37.4358 38.7359 38.2218ZM24.6755 37.1593C24.1672 36.9657 23.6036 36.934 23.0705 37.0786C23.0472 37.084 23.0243 37.0902 23.0021 37.0968L19.7136 38.0891C20.2698 35.3543 22.4905 33.1775 25.3252 32.7559V35.5266C25.3252 36.1237 25.0586 36.7411 24.6755 37.1593ZM27.2589 44.8004C27.2571 44.7959 27.2553 44.7915 27.2536 44.7872C27.2054 44.6652 27.1578 44.5448 27.1106 44.4258C27.1021 44.4043 27.0936 44.3828 27.0851 44.3615C27.0388 44.2451 26.993 44.1295 26.9478 44.0159C26.9446 44.0079 26.9415 44 26.9383 43.9919C26.7973 43.6373 26.6613 43.2972 26.5305 42.9713C26.521 42.9477 26.5115 42.9237 26.502 42.9003C26.4644 42.8068 26.4274 42.7148 26.3907 42.6239C26.3773 42.5905 26.364 42.5575 26.3506 42.5245C26.3151 42.4364 26.2798 42.3488 26.245 42.2631C26.2346 42.2374 26.2244 42.2125 26.2142 42.187C26.1511 42.0314 26.0894 41.8797 26.0292 41.7318C26.0129 41.6918 25.9963 41.651 25.9802 41.6116C25.9566 41.5539 25.9336 41.4978 25.9105 41.4413C25.8856 41.3804 25.8607 41.3199 25.8363 41.2605C25.8272 41.2383 25.8177 41.2148 25.8085 41.1927C25.8012 41.175 25.7944 41.1586 25.7872 41.1409C25.6773 40.8738 25.5728 40.6221 25.4736 40.3853C25.4729 40.3834 25.472 40.3815 25.4712 40.3796C25.4184 40.2535 25.3667 40.1304 25.3171 40.0131C25.2913 39.9523 25.2659 39.8925 25.2411 39.8338L30.6042 43.8422L28.3632 44.7943C28.3593 44.7959 28.3552 44.7976 28.3513 44.7993L27.4156 45.1968C27.3626 45.0626 27.3106 44.9311 27.2589 44.8004ZM29.53 50.6285C29.342 50.1406 29.1526 49.65 28.9628 49.1598C28.666 48.3931 28.3825 47.6642 28.1112 46.9697L28.4664 46.8188L29.9178 48.5059L29.53 50.6285ZM32.5184 58.3648C32.4911 58.3082 32.4586 58.2547 32.421 58.205C31.9909 57.0681 31.445 55.6296 30.8408 54.0469L31.7295 49.1814H33.2705L34.1591 54.0469C33.526 55.705 32.9574 57.2043 32.5184 58.3648ZM33.6275 47.2779H31.3725L30.3055 46.0375L32.5 45.1053L34.6945 46.0375L33.6275 47.2779ZM36.0372 49.1598C35.8474 49.65 35.6579 50.1406 35.4699 50.6285L35.0822 48.5057L36.5335 46.8187L36.8888 46.9696C36.6175 47.664 36.334 48.3931 36.0372 49.1598ZM39.683 40.0131C39.6359 40.1243 39.5869 40.241 39.537 40.36C39.5305 40.3755 39.5239 40.3912 39.5174 40.4068C39.4681 40.5248 39.4178 40.6454 39.3657 40.771C39.3623 40.7792 39.3588 40.788 39.3553 40.7964C39.3104 40.9047 39.2643 41.0164 39.2175 41.1303C39.2087 41.1516 39.2004 41.1713 39.1917 41.1927C39.1813 41.2183 39.1701 41.2453 39.1596 41.2711C39.1387 41.3218 39.1175 41.3736 39.0962 41.4254C39.0701 41.4893 39.044 41.5529 39.0173 41.6183C39.0087 41.6391 39 41.6608 38.9913 41.6818C38.9251 41.8441 38.857 42.0115 38.7875 42.1833C38.7765 42.2103 38.7658 42.2367 38.7548 42.264C38.7204 42.3489 38.6854 42.4356 38.6502 42.5228C38.6365 42.557 38.6227 42.591 38.6088 42.6255C38.5725 42.7155 38.5358 42.8067 38.4988 42.8991C38.4884 42.9249 38.4778 42.9513 38.4674 42.9772C38.3383 43.2986 38.2044 43.6339 38.0654 43.9833C38.0608 43.9948 38.0562 44.0061 38.0516 44.0178C38.0067 44.1307 37.9613 44.2454 37.9153 44.3611C37.9068 44.3827 37.8982 44.4043 37.8895 44.426C37.842 44.5456 37.7942 44.6664 37.7457 44.7892C37.7448 44.7915 37.7439 44.7938 37.743 44.7959C37.6907 44.9282 37.6382 45.0613 37.5846 45.1971L36.6481 44.7992C36.6447 44.7978 36.6414 44.7964 36.6383 44.795L34.396 43.8425L39.7592 39.8341C39.734 39.8925 39.7086 39.9521 39.683 40.0131ZM41.9979 37.097C41.9977 37.097 41.9975 37.0968 41.9973 37.0968C41.9966 37.0966 41.9957 37.0965 41.9949 37.0961C41.4427 36.9304 40.8536 36.9578 40.3246 37.1593C39.9413 36.7411 39.6749 36.1237 39.6749 35.5266V32.7545C42.5274 33.175 44.7413 35.3313 45.2903 38.0903L41.9979 37.097ZM49.3849 50.575C49.3849 52.2411 48.0294 53.5964 46.3634 53.5964C44.6974 53.5964 43.3419 52.2411 43.3419 50.575C43.3419 48.9088 44.6974 47.5535 46.3634 47.5535C48.0294 47.5535 49.3849 48.9088 49.3849 50.575Z" fill="#9D9D9D"/>
</svg>
