<svg width="36" height="36" viewBox="0 0 36 36" fill="none" xmlns="http://www.w3.org/2000/svg">
<circle cx="18" cy="18" r="18" fill="white"/>
<path fill-rule="evenodd" clip-rule="evenodd" d="M17.9095 14.6592L17.8699 14.0076C17.7511 12.3187 18.7938 10.7761 20.4438 10.1777C21.051 9.96492 22.0805 9.93832 22.7537 10.1245C23.0176 10.2043 23.5193 10.4702 23.8756 10.7096L24.5224 11.1485L25.2351 10.9224C25.6311 10.8027 26.1591 10.6032 26.3966 10.4702C26.621 10.3506 26.819 10.284 26.819 10.324C26.819 10.55 26.3307 11.3213 25.9215 11.7468C25.3671 12.3453 25.5255 12.3985 26.6475 11.9995C27.3206 11.7734 27.3338 11.7734 27.2018 12.0261C27.1226 12.1591 26.7134 12.6245 26.2778 13.0501C25.5387 13.7815 25.4991 13.8613 25.4991 14.473C25.4991 15.4172 25.0503 17.3853 24.6015 18.4624C23.77 20.4838 21.9881 22.5715 20.2062 23.6221C17.6984 25.0982 14.3589 25.4705 11.5475 24.6062C10.6103 24.3136 9 23.5689 9 23.436C9 23.396 9.48834 23.3428 10.0824 23.3296C11.3231 23.303 12.5638 22.9572 13.6197 22.3455L14.3326 21.92L13.5141 21.6407C12.3526 21.2417 11.3099 20.3242 11.0459 19.4598C10.9667 19.1805 10.9931 19.1672 11.7322 19.1672L12.4978 19.1539L11.851 18.8481C11.0855 18.4624 10.3859 17.8108 10.0427 17.1459C9.79192 16.6672 9.47521 15.457 9.5676 15.364C9.59394 15.3241 9.87117 15.4038 10.188 15.5102C11.0987 15.8427 11.2175 15.7629 10.6895 15.2044C9.69953 14.1937 9.39596 12.691 9.87117 11.2681L10.0956 10.6298L10.9667 11.4942C12.7486 13.2362 14.8473 14.2735 17.2496 14.5794L17.9095 14.6592Z" fill="#9B9BCA"/>
</svg>
