<svg width="82" height="82" viewBox="0 0 82 82" fill="none" xmlns="http://www.w3.org/2000/svg">
<circle cx="41" cy="41" r="41" fill="#9A9FAD"/>
<path d="M36.8576 55.9899L24.4448 43.3818C22.9038 41.8165 22.9038 39.3042 24.4448 37.7389L36.8576 25.1307C39.3819 22.5666 43.7452 24.3541 43.7452 27.9521V53.1684C43.7452 56.7665 39.382 58.554 36.8576 55.9899Z" fill="#F1F5F7"/>
<path d="M30.3722 49.4528H23.0002C21.7008 49.4528 20.6377 48.3897 20.6377 47.0903V34.0305C20.6377 32.7311 21.7008 31.668 23.0002 31.668H30.3723V49.4528H30.3722Z" fill="white"/>
<path d="M49.9264 50.2991C49.5707 50.2991 49.2226 50.1227 49.0179 49.8002C48.6997 49.299 48.8481 48.6348 49.3493 48.3165C51.4725 46.9687 52.9881 44.6672 53.4035 42.1601C53.9769 38.6992 52.3619 35.0838 49.3846 33.1636C48.8857 32.8418 48.7422 32.1766 49.064 31.6777C49.3856 31.1787 50.0508 31.035 50.55 31.357C54.2368 33.7348 56.2359 38.2175 55.5244 42.5114C55.0106 45.6124 53.1329 48.4611 50.5016 50.1315C50.3297 50.241 50.1301 50.2992 49.9264 50.2991ZM54.0505 53.2628C57.5594 51.0354 60.0634 47.2362 60.7487 43.1C61.6973 37.3745 59.0311 31.397 54.1143 28.2259C53.6151 27.9039 52.9499 28.0476 52.6283 28.5466C52.3065 29.0456 52.45 29.7108 52.949 30.0326C57.1562 32.746 59.4382 37.8562 58.6277 42.7486C58.0408 46.291 55.8989 49.5431 52.8982 51.4479C52.3971 51.766 52.2487 52.4303 52.5668 52.9316C52.6424 53.0508 52.7407 53.154 52.8562 53.2352C52.9717 53.3165 53.1021 53.3741 53.2399 53.4049C53.3777 53.4356 53.5203 53.4389 53.6594 53.4145C53.7984 53.3902 53.9313 53.3386 54.0505 53.2628ZM47.5091 45.8922C48.9738 44.9622 49.9777 43.4397 50.2634 41.7151C50.6537 39.3591 49.5579 36.9002 47.5365 35.5966C47.0376 35.2748 46.3723 35.4184 46.0505 35.9173C45.7287 36.4162 45.8723 37.0815 46.3713 37.4033C47.6829 38.2492 48.3948 39.8408 48.1425 41.3637C47.9593 42.4692 47.2918 43.4835 46.3568 44.0771C45.8556 44.3953 45.7073 45.0597 46.0254 45.5608C46.1225 45.7139 46.2567 45.8399 46.4155 45.9271C46.5744 46.0144 46.7527 46.06 46.9339 46.0597C47.1377 46.0597 47.3373 46.0016 47.5091 45.8922Z" fill="white"/>
</svg>
