<svg width="85" height="12" viewBox="0 0 85 12" fill="none" xmlns="http://www.w3.org/2000/svg">
<g clip-path="url(#clip0)">
<path d="M2.7661 11.5821C2.4766 11.7306 2.1481 11.4704 2.2066 11.1381L2.8291 7.59064L0.186846 5.07364C-0.0599045 4.83814 0.0683455 4.40764 0.399096 4.36114L4.0726 3.83914L5.7106 0.593887C5.85835 0.301387 6.2581 0.301387 6.40585 0.593887L8.04385 3.83914L11.7173 4.36114C12.0481 4.40764 12.1763 4.83814 11.9296 5.07364L9.28735 7.59064L9.90985 11.1381C9.96835 11.4704 9.63985 11.7306 9.35035 11.5821L6.0571 9.89014L2.76535 11.5821H2.7661Z" fill="#FFCE31"/>
</g>
<g clip-path="url(#clip1)">
<path d="M20.7661 11.5821C20.4766 11.7306 20.1481 11.4704 20.2066 11.1381L20.8291 7.59064L18.1868 5.07364C17.9401 4.83814 18.0683 4.40764 18.3991 4.36114L22.0726 3.83914L23.7106 0.593887C23.8583 0.301387 24.2581 0.301387 24.4058 0.593887L26.0438 3.83914L29.7173 4.36114C30.0481 4.40764 30.1763 4.83814 29.9296 5.07364L27.2873 7.59064L27.9098 11.1381C27.9683 11.4704 27.6398 11.7306 27.3503 11.5821L24.0571 9.89014L20.7653 11.5821H20.7661Z" fill="#FFCE31"/>
</g>
<g clip-path="url(#clip2)">
<path d="M38.7661 11.5821C38.4766 11.7306 38.1481 11.4704 38.2066 11.1381L38.8291 7.59064L36.1868 5.07364C35.9401 4.83814 36.0683 4.40764 36.3991 4.36114L40.0726 3.83914L41.7106 0.593887C41.8583 0.301387 42.2581 0.301387 42.4058 0.593887L44.0438 3.83914L47.7173 4.36114C48.0481 4.40764 48.1763 4.83814 47.9296 5.07364L45.2873 7.59064L45.9098 11.1381C45.9683 11.4704 45.6398 11.7306 45.3503 11.5821L42.0571 9.89014L38.7653 11.5821H38.7661Z" fill="#FFCE31"/>
</g>
<g clip-path="url(#clip3)">
<path d="M56.7661 11.5821C56.4766 11.7306 56.1481 11.4704 56.2066 11.1381L56.8291 7.59064L54.1868 5.07364C53.9401 4.83814 54.0683 4.40764 54.3991 4.36114L58.0726 3.83914L59.7106 0.593887C59.8583 0.301387 60.2581 0.301387 60.4058 0.593887L62.0438 3.83914L65.7173 4.36114C66.0481 4.40764 66.1763 4.83814 65.9296 5.07364L63.2873 7.59064L63.9098 11.1381C63.9683 11.4704 63.6398 11.7306 63.3503 11.5821L60.0571 9.89014L56.7653 11.5821H56.7661Z" fill="#FFCE31"/>
</g>
<g clip-path="url(#clip4)">
<path d="M74.7661 11.5821C74.4766 11.7306 74.1481 11.4704 74.2066 11.1381L74.8291 7.59064L72.1868 5.07364C71.9401 4.83814 72.0683 4.40764 72.3991 4.36114L76.0726 3.83914L77.7106 0.593887C77.8583 0.301387 78.2581 0.301387 78.4058 0.593887L80.0438 3.83914L83.7173 4.36114C84.0481 4.40764 84.1763 4.83814 83.9296 5.07364L81.2873 7.59064L81.9098 11.1381C81.9683 11.4704 81.6398 11.7306 81.3503 11.5821L78.0571 9.89014L74.7653 11.5821H74.7661Z" fill="#FFCE31"/>
</g>
<defs>
<clipPath id="clip0">
<rect width="12" height="12" fill="white" transform="translate(0.0571289)"/>
</clipPath>
<clipPath id="clip1">
<rect width="12" height="12" fill="white" transform="translate(18.0571)"/>
</clipPath>
<clipPath id="clip2">
<rect width="12" height="12" fill="white" transform="translate(36.0571)"/>
</clipPath>
<clipPath id="clip3">
<rect width="12" height="12" fill="white" transform="translate(54.0571)"/>
</clipPath>
<clipPath id="clip4">
<rect width="12" height="12" fill="white" transform="translate(72.0571)"/>
</clipPath>
</defs>
</svg>
